<svg xmlns="http://www.w3.org/2000/svg" xmlns:xlink="http://www.w3.org/1999/xlink" width="1292.443" height="220.777"
  viewBox="-1 30 1292.443 162">
  <defs>
    <filter id="Path_10" x="364.44" y="39.916" width="928.003" height="161.059" filterUnits="userSpaceOnUse">
      <feOffset dy="3" input="SourceAlpha" />
      <feGaussianBlur stdDeviation="3" result="blur" />
      <feFlood flood-opacity="0.161" />
      <feComposite operator="in" in2="blur" />
      <feComposite in="SourceGraphic" />
    </filter>
    <filter id="Path_11" x="364.44" y="17.884" width="903.794" height="159.236" filterUnits="userSpaceOnUse">
      <feOffset dy="3" input="SourceAlpha" />
      <feGaussianBlur stdDeviation="3" result="blur-2" />
      <feFlood flood-opacity="0.161" />
      <feComposite operator="in" in2="blur-2" />
      <feComposite in="SourceGraphic" />
    </filter>
    <filter id="Path_12" x="364.44" y="0" width="880.926" height="151.985" filterUnits="userSpaceOnUse">
      <feOffset dy="3" input="SourceAlpha" />
      <feGaussianBlur stdDeviation="3" result="blur-3" />
      <feFlood flood-opacity="0.161" />
      <feComposite operator="in" in2="blur-3" />
      <feComposite in="SourceGraphic" />
    </filter>
  </defs>
  <g id="Group_24" data-name="Group 24" transform="translate(17.5 15.096)">
    <g transform="matrix(1, 0, 0, 1, -17.5, -15.1)" filter="url(#Path_10)">
      <path id="Path_10-2" data-name="Path 10" d="M-3.359,111.613h761.41s133.586,1.238,131.57-125.922"
        transform="translate(385.3 63.86)" fill="none" stroke="#f9a134" stroke-linecap="round" stroke-width="14" />
    </g>
    <g transform="matrix(1, 0, 0, 1, -17.5, -15.1)" filter="url(#Path_11)">
      <path id="Path_11-2" data-name="Path 11" d="M-3.359,111.613H750.955s118.529,8.324,114.372-123.824"
        transform="translate(385.3 44.86)" fill="none" stroke="#f9a134" stroke-linecap="round" stroke-width="14"
        opacity="0.66" />
    </g>
    <g transform="matrix(1, 0, 0, 1, -17.5, -15.1)" filter="url(#Path_12)">
      <path id="Path_12-2" data-name="Path 12" d="M-3.359,105.51H753.5s96.977-.8,88.544-116.39"
        transform="translate(385.3 31.86)" fill="none" stroke="#f9a134" stroke-linecap="round" stroke-width="14"
        opacity="0.33" />
    </g>
  </g>
</svg>
