<svg id="Component_1_7" data-name="Component 1 – 7" xmlns="http://www.w3.org/2000/svg" width="244.543" height="92.458" viewBox="0 0 244.543 92.458">
  <path id="Path_1" data-name="Path 1" d="M492.76,1009.331h-19.3a8.917,8.917,0,0,1,.17-6.024H480.1q-.681-3.778-4.254-3.778a4.618,4.618,0,0,0-3.88,2.025,8.5,8.5,0,0,0-1.5,5.19,9.045,9.045,0,0,0,1.446,5.343,4.448,4.448,0,0,0,3.795,2.042,5.066,5.066,0,0,0,3.675-1.906l7.249,8.712a17.8,17.8,0,0,1-11.265,3.982,17.363,17.363,0,0,1-12.694-5.071,17.891,17.891,0,0,1,.051-25.15,17.415,17.415,0,0,1,12.745-5.139,17.145,17.145,0,0,1,17.424,17.39Q492.9,1007.7,492.76,1009.331Z" transform="translate(-397.801 -977.766)" fill="#0073ae"/>
  <g id="Group_1" data-name="Group 1" transform="translate(200.333 9.391)">
    <path id="Path_2" data-name="Path 2" d="M1187.826,999.864a5,5,0,0,1-3.131-1.259v14.021q2.246.238,3.4.238a16.639,16.639,0,0,0,12.251-5.241,17.125,17.125,0,0,0,5.173-12.456,16.858,16.858,0,0,0-5.207-12.524,18.167,18.167,0,0,0-20.232-3.437,16.715,16.715,0,0,0-5.973,4.492q-4.084,4.9-4.084,12.694l.276,49.83h-8.99l16.182,14.384,14.384-14.384h-8.99l-.133-49.353q0-6.772,4.9-6.772a4.872,4.872,0,0,1,3.505,1.412,4.58,4.58,0,0,1,1.463,3.42,4.829,4.829,0,0,1-1.412,3.471A4.54,4.54,0,0,1,1187.826,999.864Zm-6.935,51.581h-8.59v-5.394h8.59Zm0-6.622h-8.59v-5.394h8.59Zm0-6.723h-8.59v-5.394h8.59Zm0-6.73h-8.59v-5.394h8.59Zm-8.59-6.724v-5.394h8.59v5.394" transform="translate(-1161.313 -977.539)" fill="#0073ae"/>
  </g>
  <path id="Path_3" data-name="Path 3" d="M187.012,992l-7.977,12.223c-.885-.5-3.588-.271-4.314-.271q-3.471,0-3.471,5.309v16.1H158.522v-18.547q0-7.351,4.016-11.724a13.851,13.851,0,0,1,10.72-4.373C174.256,990.717,185.424,991.754,187.012,992Z" transform="translate(-158.522 -978.693)" fill="#0073ae"/>
  <path id="Path_4" data-name="Path 4" d="M656.322,930.532v46.453H643.594V930.532Z" transform="translate(-546.688 -930.532)" fill="#0073ae"/>
  <path id="Path_5" data-name="Path 5" d="M738.055,930.532h12.728v28.28q0,7.794-4.084,12.694A16.7,16.7,0,0,1,740.727,976a18.167,18.167,0,0,1-20.232-3.437,16.857,16.857,0,0,1-5.207-12.524,17.086,17.086,0,0,1,5.173-12.422,16.64,16.64,0,0,1,12.251-5.241q1.123,0,3.4.2V956.6a5.077,5.077,0,0,0-3.131-1.225,4.566,4.566,0,0,0-3.386,1.446,4.812,4.812,0,0,0-1.412,3.488,4.538,4.538,0,0,0,1.464,3.386,4.868,4.868,0,0,0,3.505,1.412q4.9,0,4.9-6.772Z" transform="translate(-604.06 -930.532)" fill="#0073ae"/>
  <path id="Path_6" data-name="Path 6" d="M1033.291,989.643a16.818,16.818,0,0,1,12.371,5.19,17.6,17.6,0,0,1-.068,24.962,17.953,17.953,0,0,1-25.235-.017,16.962,16.962,0,0,1-5.241-12.507,16.789,16.789,0,0,1,5.241-12.541A17.848,17.848,0,0,1,1033.291,989.643Zm-.34,12.558a4.645,4.645,0,0,0-3.471,1.481,5.265,5.265,0,0,0,.017,7.232,4.772,4.772,0,0,0,6.943,0,5.266,5.266,0,0,0,.017-7.232A4.684,4.684,0,0,0,1032.951,1002.2Z" transform="translate(-843.991 -977.834)" fill="#0073ae"/>
  <path id="Path_7" data-name="Path 7" d="M1150.82,1114.068" transform="translate(-952.583 -1077.402)" fill="#0073ae"/>
  <path id="Path_8" data-name="Path 8" d="M930.4,993.549l-7.977,12.223c-.885-.5-3.588-.272-4.314-.272q-3.471,0-3.471,5.309v16.1H901.91v-18.547q0-7.351,4.016-11.724a13.851,13.851,0,0,1,10.72-4.373C917.644,992.262,928.812,993.3,930.4,993.549Z" transform="translate(-753.399 -979.93)" fill="#0073ae"/>
  <path id="Path_9" data-name="Path 9" d="M308.276,1012.034h-19.3a8.917,8.917,0,0,1,.17-6.024h6.466q-.681-3.777-4.254-3.777a4.618,4.618,0,0,0-3.88,2.025,8.5,8.5,0,0,0-1.5,5.19,9.046,9.046,0,0,0,1.446,5.343,4.448,4.448,0,0,0,3.795,2.042,5.066,5.066,0,0,0,3.675-1.906l7.249,8.712a17.8,17.8,0,0,1-11.265,3.982,17.364,17.364,0,0,1-12.694-5.071,17.892,17.892,0,0,1,.051-25.15,17.416,17.416,0,0,1,12.745-5.139,17.145,17.145,0,0,1,17.424,17.39Q308.412,1010.4,308.276,1012.034Z" transform="translate(-250.173 -979.93)" fill="#0073ae"/>
</svg>
